<svg width="24" height="24" viewBox="0 0 24 24" fill="none" xmlns="http://www.w3.org/2000/svg">
  <path d="M13.4145 12L18.7074 6.707C19.0975 6.31632 19.0975 5.68369 18.7074 5.29301C18.3161 4.90233 17.6831 4.90233 17.2929 5.29301L12 10.5857L6.70705 5.29301C6.31595 4.90233 5.68388 4.90233 5.29258 5.29301C4.90247 5.68369 4.90247 6.31632 5.29258 6.707L10.5855 12L5.29258 17.2929C4.90247 17.683 4.90247 18.316 5.29258 18.7073C5.48873 18.9022 5.74417 19 5.99982 19C6.25625 19 6.5119 18.9024 6.70685 18.7073L11.9998 13.4146L17.2928 18.7073C17.4877 18.9022 17.7443 19 17.9998 19C18.2554 19 18.5109 18.9024 18.707 18.7073C19.0971 18.316 19.0971 17.683 18.707 17.2929L13.4145 12Z" fill="#000"/>
</svg>
