<svg width="24" height="24" viewBox="0 0 24 24" fill="none" xmlns="http://www.w3.org/2000/svg">
<path d="M10.1984 20.1811C10.6867 20.1811 11.0843 20.5892 11.0843 21.0905C11.0843 21.592 10.6867 22 10.1984 22H6.65621C6.29984 22 5.95213 21.9278 5.62654 21.7877C5.30976 21.6538 5.02664 21.4595 4.78173 21.2126C4.53833 20.9641 4.34468 20.675 4.21124 20.3528C4.07037 20.017 4 19.6617 4 19.2957V4.72827C4 4.35931 4.07037 4.0025 4.20972 3.6667C4.34317 3.34149 4.5353 3.04943 4.77733 2.79941C5.02224 2.54954 5.30536 2.3523 5.62214 2.2153C5.95075 2.07365 6.29833 2 6.65621 2H10.1984C10.6867 2 11.0843 2.40803 11.0843 2.90933C11.0843 3.41232 10.6867 3.8188 10.1984 3.8188H6.65621C6.16776 3.8188 5.7703 4.22683 5.7703 4.72827V19.2957C5.7703 19.7836 6.16776 20.1811 6.65621 20.1811L10.1984 20.1811ZM20.6056 11.2059C20.8461 11.3731 21 11.644 21 11.9994C21 12.3577 20.8461 12.6272 20.6056 12.7944L17.8701 15.6025C17.4902 15.9909 16.9212 15.9909 16.5427 15.6025C16.1629 15.2125 16.1629 14.6283 16.5427 14.2399L17.7748 12.9736H11.5165C10.9474 12.9736 10.5675 12.585 10.5675 11.9993C10.5675 11.4166 10.9474 11.0267 11.5165 11.0267H17.7748L16.5427 9.76193C16.1629 9.37195 16.1629 8.7877 16.5427 8.39772C16.9212 8.00775 17.4902 8.00775 17.8701 8.39772L20.6056 11.2059Z" fill="#000"/>
</svg>
