<svg width="24" height="15" viewBox="0 0 24 15" fill="none" xmlns="http://www.w3.org/2000/svg">
  <path fill-rule="evenodd" clip-rule="evenodd" d="M12.0011 0C18.5182 0 23.6277 6.7395 23.842 7.02873C23.9446 7.16606 24 7.3316 24 7.50143C24 7.67127 23.9446 7.83681 23.842 7.97414C23.6275 8.26064 18.5177 15 12.0011 15C5.48459 15 0.375015 8.26075 0.157791 7.97414C0.0552211 7.83681 0 7.67127 0 7.50143C0 7.3316 0.0552211 7.16606 0.157791 7.02873C0.374731 6.73936 5.4841 0 12.0011 0ZM12.0011 1.60711C7.24072 1.60711 3.11799 6.02142 1.87564 7.49987C3.12034 8.97573 7.25152 13.3926 12.0011 13.3926C16.7615 13.3926 20.8843 8.97832 22.1266 7.49987C20.8819 6.024 16.7615 1.60711 12.0011 1.60711ZM12.0011 2.78083C13.2851 2.78236 14.5161 3.2799 15.4239 4.16477C16.3319 5.04945 16.8425 6.24914 16.844 7.50039C16.844 8.75203 16.3339 9.95244 15.4257 10.8377C14.5173 11.7227 13.2855 12.2199 12.0011 12.2199C10.7168 12.2199 9.48497 11.7228 8.57657 10.8377C7.66842 9.95249 7.15822 8.75203 7.15822 7.50039C7.15822 6.24876 7.66837 5.04835 8.57657 4.1631C9.48492 3.27808 10.7168 2.78083 12.0011 2.78083H12.0011ZM12.0011 4.3879C11.1541 4.3879 10.3418 4.71583 9.7428 5.29951C9.14383 5.88319 8.80736 6.67483 8.80736 7.5003C8.80736 8.32576 9.14386 9.11738 9.7428 9.70109C10.3417 10.2848 11.1541 10.6127 12.0011 10.6127C12.848 10.6121 13.66 10.2838 14.2587 9.70032C14.8575 9.11683 15.1943 8.32557 15.1949 7.5003C15.1949 6.67483 14.8584 5.88321 14.2595 5.29951C13.6605 4.7158 12.8482 4.3879 12.0011 4.3879Z" fill="#000"/>
</svg>
