<svg width="24" height="20" viewBox="0 0 24 20" fill="none" xmlns="http://www.w3.org/2000/svg">
<path d="M3.631 0L2.217 1.415L20.293 19.476L21.707 18.061L3.631 0Z" fill="#000"/>
<path fill-rule="evenodd" clip-rule="evenodd" d="M6.51297 3.70898L7.71417 4.9088C4.90419 6.31728 2.7218 8.6862 1.87564 9.69318C3.12034 11.169 7.25152 15.5859 12.0011 15.5859C13.7748 15.5859 15.46 14.9731 16.9407 14.1276L18.1269 15.3125C16.351 16.3831 14.2606 17.1933 12.0011 17.1933C5.48459 17.1933 0.375011 10.4541 0.157787 10.1674C0.0552166 10.0301 0 9.86459 0 9.69475C0 9.52491 0.0552166 9.35937 0.157787 9.22205C0.308332 9.02123 2.81491 5.71432 6.51297 3.70898ZM8.8866 6.07948L10.0429 7.23486C9.93801 7.31423 9.83772 7.40032 9.74279 7.49282C9.14383 8.0765 8.80735 8.86815 8.80735 9.69361C8.80735 10.5191 9.14385 11.3107 9.74279 11.8944C10.3417 12.4781 11.1541 12.806 12.0011 12.806C12.848 12.8054 13.66 12.4771 14.2587 11.8936C14.3348 11.8195 14.4067 11.7419 14.4742 11.6614L15.6308 12.8184C15.5649 12.8911 15.4965 12.962 15.4257 13.031C14.5173 13.916 13.2855 14.4132 12.0011 14.4132C10.7168 14.4132 9.48497 13.9161 8.57657 13.031C7.66842 12.1458 7.15822 10.9453 7.15822 9.69371C7.15822 8.44207 7.66837 7.24166 8.57657 6.35641C8.67615 6.25939 8.77961 6.16703 8.8866 6.07948ZM12.0011 2.19331C18.5182 2.19331 23.6277 8.93282 23.842 9.22205C23.9446 9.35937 24 9.52491 24 9.69475C24 9.86459 23.9446 10.0301 23.842 10.1674C23.7269 10.3212 22.2023 12.3329 19.8072 14.1643L18.644 13.0017C20.295 11.7618 21.5361 10.3959 22.1266 9.69318C20.8819 8.21731 16.7615 3.80043 12.0011 3.80043C11.2309 3.80043 10.4774 3.91599 9.75003 4.11598L8.46524 2.83184C9.57723 2.43625 10.7638 2.19331 12.0011 2.19331ZM12.0011 4.97415C13.285 4.97568 14.5161 5.47321 15.4239 6.35808C16.3319 7.24276 16.8425 8.44245 16.844 9.69371C16.844 10.1432 16.7782 10.5861 16.6518 11.0102L15.189 9.55031L15.1879 9.48805C15.137 8.73765 14.8085 8.02788 14.2595 7.49282C13.7136 6.9608 12.9904 6.64129 12.2252 6.58888L10.7652 5.13041C11.1652 5.02752 11.5803 4.97415 12.0011 4.97415Z" fill="#000"/>
</svg>
