<svg xmlns="http://www.w3.org/2000/svg" width="50" height="80" viewBox="0 0 50 80">
  <path fill="#E10" d="M227.161301,275 C229.82224,275 232,277.160327 232,279.799966 L232,279.799966 L231.999325,350.200034 C231.999325,352.839673 229.821565,355 227.160626,355 L227.160626,355 L186.838715,355 C184.177776,355 182,352.839673 182,350.200034 L182,350.200034 L182,279.799966 C182,277.159642 184.17776,275 186.83939,275 L186.83939,275 Z M227.160626,278.200206 L186.838715,278.200206 C185.951712,278.200206 185.226046,278.920063 185.226046,279.799966 L185.226046,279.799966 L185.226046,350.200034 C185.226046,351.079937 185.951712,351.799794 186.838715,351.799794 L186.838715,351.799794 L227.160626,351.799794 C228.047629,351.799794 228.773295,351.079937 228.773295,350.200034 L228.773295,350.200034 L228.773295,279.799966 C228.773295,278.920063 228.047629,278.200206 227.160626,278.200206 L227.160626,278.200206 Z M210.581171,345.959265 C211.484366,345.959265 212.194516,346.679122 212.193841,347.559025 C212.193841,348.438927 211.468174,349.158785 210.581171,349.158785 L210.581171,349.158785 L203.403481,349.158785 C202.516478,349.158785 201.790811,348.438927 201.790811,347.559025 C201.790811,346.679122 202.516478,345.959265 203.403481,345.959265 L203.403481,345.959265 Z M207.000673,299.559882 C208.855622,299.559882 210.51692,300.583766 211.355329,302.231748 L211.355329,302.231748 L222.033818,323.447597 C222.791904,324.951529 222.71089,326.712019 221.823887,328.151735 C220.920779,329.576107 219.372188,330.439947 217.678505,330.439947 L217.678505,330.439947 L196.307287,330.439261 C194.613743,330.439261 193.065135,329.575387 192.162596,328.151735 C191.27492,326.711402 191.194597,324.951597 191.952666,323.447597 L191.952666,323.447597 L202.646017,302.231748 C203.46825,300.583766 205.145723,299.559882 207.000673,299.559882 Z M206.999688,302.760156 C206.370553,302.760156 205.822415,303.096325 205.532145,303.656138 L205.532145,303.656138 L194.838829,324.871988 C194.468236,325.607925 194.758489,326.232024 194.903633,326.456353 C195.048776,326.680683 195.484173,327.224434 196.307045,327.224434 L196.307045,327.224434 L217.692365,327.223764 C218.531447,327.223764 218.966845,326.680014 219.095777,326.455684 C219.225385,326.232023 219.531848,325.607924 219.160581,324.871987 L219.160581,324.871987 L208.46723,303.656138 C208.193153,303.096308 207.645032,302.760156 206.999688,302.760156 Z M205.854969,321.655044 C206.225562,321.28674 206.789892,321.111296 207.306302,321.207053 C207.419027,321.238526 207.516234,321.270668 207.612765,321.302811 C207.709297,321.351025 207.806496,321.398569 207.886825,321.446783 C207.983359,321.511061 208.064364,321.575346 208.144693,321.655032 C208.28982,321.799014 208.403228,321.975122 208.483558,322.167309 C208.563887,322.375559 208.61249,322.567077 208.61249,322.791407 C208.61249,322.887167 208.596289,322.999659 208.580088,323.095416 C208.563887,323.207239 208.532161,323.303668 208.483558,323.399426 C208.451156,323.495185 208.403228,323.591606 208.338424,323.671292 C208.273619,323.767045 208.20949,323.846731 208.144686,323.911016 C208.064347,323.991366 207.983348,324.054981 207.886818,324.119266 C207.806496,324.16748 207.709288,324.215024 207.612758,324.263238 C207.516226,324.29471 207.419027,324.326853 207.306295,324.358995 C207.209763,324.375067 207.096363,324.391138 206.999833,324.391138 C206.887091,324.391138 206.789892,324.375067 206.677161,324.358995 C206.580629,324.327523 206.483421,324.29538 206.386891,324.263238 L206.386891,324.263238 L206.096621,324.119266 C206.016297,324.054988 205.935292,323.990703 205.854962,323.911016 C205.790157,323.8474 205.709827,323.76705 205.661224,323.671292 C205.59642,323.591613 205.548493,323.495183 205.516091,323.399426 C205.467502,323.303678 205.4351,323.207257 205.419574,323.095428 C205.387172,322.999669 205.387172,322.887177 205.387172,322.791419 C205.387172,322.567758 205.418899,322.375571 205.516105,322.167321 C205.597101,321.975134 205.709836,321.799016 205.854969,321.655044 Z M207.000535,308.311076 C207.887537,308.311076 208.613204,309.030934 208.613204,309.910836 L208.613204,309.910836 L208.613204,318.278548 C208.613204,319.15845 207.887537,319.878308 207.000535,319.878308 C206.113532,319.878308 205.387865,319.15845 205.387865,318.278548 L205.387865,318.278548 L205.387865,309.910836 C205.387865,309.030934 206.113532,308.311076 207.000535,308.311076 Z M213.56492,280.839844 C214.451923,280.839844 215.177589,281.559702 215.177589,282.439604 C215.177589,283.319506 214.451923,284.039364 213.56492,284.039364 L213.56492,284.039364 L200.419905,284.039364 C199.532228,284.039364 198.80656,283.319506 198.807235,282.439604 C198.807235,281.559702 199.532902,280.839844 200.419905,280.839844 L200.419905,280.839844 Z M218.661603,280.967758 C218.968082,280.839833 219.274545,280.807715 219.597217,280.872 C219.709941,280.888072 219.807149,280.919544 219.903679,280.967758 C220.000211,280.999901 220.096733,281.047444 220.178414,281.111729 C220.274939,281.176016 220.355268,281.239631 220.420072,281.303917 C220.726552,281.607926 220.90408,282.023774 220.90408,282.439623 C220.90408,282.551462 220.887879,282.647883 220.871678,282.759712 L220.871678,282.759712 L220.775148,283.047659 C220.726545,283.143418 220.678618,283.239847 220.630015,283.335605 C220.565218,283.415286 220.500414,283.495643 220.420084,283.575329 C220.355954,283.639616 220.274956,283.719302 220.178426,283.767516 C220.098103,283.831801 220.000896,283.879345 219.904365,283.927559 C219.807833,283.959031 219.710634,283.991174 219.597903,284.007245 C219.501371,284.039388 219.387971,284.039388 219.291441,284.039388 C219.08151,284.039388 218.872236,284.007245 218.662306,283.927559 C218.468568,283.831131 218.291029,283.719299 218.145896,283.575327 C218.064898,283.495646 218.00077,283.41529 217.935966,283.335603 C217.887363,283.239844 217.839435,283.143414 217.790832,283.047657 C217.758399,282.951892 217.725997,282.855463 217.709796,282.759705 C217.677394,282.647866 217.677394,282.551445 217.677394,282.439616 C217.677394,282.023768 217.83873,281.607919 218.145193,281.30391 C218.290336,281.159945 218.467865,281.047444 218.661603,280.967758 Z" transform="translate(-182 -275)"/>
</svg>
