<svg xmlns="http://www.w3.org/2000/svg" width="24" height="24" viewBox="0 0 24 24">
  <path d="M12,1 C18.0607723,1 23,5.9392277 23,12 C23,18.0607723 18.0607723,23 12,23 C5.9392277,23 1,18.0607723 1,12 C1,5.9392277 5.93875627,1 12,1 Z M12,2.65002357 C6.84098916,2.65002357 2.65002357,6.84098916 2.65002357,12 C2.65002357,17.1590108 6.84108344,21.3499764 12,21.3499764 C17.1590108,21.3499764 21.3499764,17.1590108 21.3499764,12 C21.3499764,6.84098916 17.1590108,2.65002357 12,2.65002357 Z M12,15.8503064 C12.4620443,15.8503064 12.8250118,16.2243243 12.8250118,16.6753182 C12.8250118,17.1263121 12.4509939,17.50033 12,17.50033 C11.5490061,17.50033 11.1749882,17.1263121 11.1749882,16.6753182 C11.1749882,16.2243243 11.5379557,15.8503064 12,15.8503064 Z M12,6.49985857 C13.8150259,6.49985857 15.3000471,7.98487978 15.3000471,9.79990571 C15.3000471,10.8449835 14.7170231,11.8460292 13.7050872,12.5390391 C13.3750825,12.769967 12.8250118,13.2541122 12.8250118,13.9249646 C12.8250118,14.3759585 12.4509939,14.7499764 12,14.7499764 C11.5490061,14.7499764 11.1749882,14.3759585 11.1749882,13.9249646 C11.1749882,12.8800754 11.7580123,11.8900613 12.7699481,11.1860198 C13.0999529,10.9549081 13.6500236,10.4709467 13.6500236,9.79990571 C13.6500236,8.88687696 12.9130288,8.14988214 12,8.14988214 C11.0869712,8.14988214 10.3499764,8.88687696 10.3499764,9.79990571 C10.3499764,10.2508996 9.97595851,10.6249175 9.52496464,10.6249175 C9.07397077,10.6249175 8.69995286,10.2508996 8.69995286,9.79990571 C8.69995286,7.98487978 10.1849741,6.49985857 12,6.49985857 Z"/>
</svg>
