<svg width="24" height="24" viewBox="0 0 24 24" fill="none" xmlns="http://www.w3.org/2000/svg">
  <path fill-rule="evenodd" clip-rule="evenodd" d="M10.1994 3C6.23926 3 3 6.23926 3 10.1993C3 14.1594 6.23926 17.3987 10.1994 17.3987C11.6934 17.3987 13.0883 16.9412 14.2419 16.1543L18.6923 20.6047C19.2194 21.1318 20.0775 21.1318 20.6046 20.6047C21.1318 20.0775 21.1318 19.2265 20.6046 18.6994L16.1472 14.2419C16.9356 13.0877 17.3987 11.6949 17.3987 10.1993C17.3987 6.23924 14.1594 3 10.1994 3ZM10.1994 5.69976C12.7003 5.69976 14.6989 7.69832 14.6989 10.1993C14.6989 12.7003 12.7003 14.6989 10.1994 14.6989C7.69834 14.6989 5.69975 12.7003 5.69975 10.1993C5.69975 7.69832 7.69834 5.69976 10.1994 5.69976Z" fill="#000"/>
</svg>
