
<svg width="24" height="24" viewBox="0 0 24 24" fill="none" xmlns="http://www.w3.org/2000/svg">
<path d="M11.9848 4C12.1504 4 12.3177 4.00528 12.4957 4.01566C12.9981 4.04803 13.4347 4.37346 13.6268 4.8392L14.2143 6.26945C14.2546 6.36733 14.3672 6.41388 14.4645 6.37347L15.8874 5.77916C16.3517 5.58519 16.8926 5.65996 17.2714 5.98965C17.5346 6.21834 17.7805 6.46341 18.0078 6.72391C18.3377 7.10293 18.4117 7.64233 18.2175 8.10539L17.623 9.5247C17.5819 9.62258 17.6283 9.7343 17.7267 9.7747L19.1586 10.3618C19.6256 10.5523 19.9525 10.9891 19.9836 11.4907C19.9944 11.6619 20 11.8314 20 12C20 12.1686 19.9944 12.3382 19.9837 12.5084C19.9526 13.0105 19.6263 13.4461 19.1596 13.6379L17.7257 14.2257C17.6283 14.2654 17.5819 14.3774 17.6229 14.4751L18.2175 15.8943C18.4117 16.3576 18.3377 16.897 18.0074 17.2766C17.7805 17.5366 17.5346 17.7816 17.2717 18.0102C16.8926 18.3401 16.3517 18.4148 15.8874 18.2209L14.4648 17.6267C14.3671 17.586 14.2548 17.6324 14.2145 17.7299L13.6265 19.1615C13.4345 19.6269 12.9972 19.9526 12.4953 19.9836C12.3245 19.9944 12.1545 20 11.9848 20C11.816 20 11.646 19.9944 11.4755 19.9836C10.9724 19.9526 10.5359 19.627 10.3438 19.1609L9.75507 17.7296C9.71515 17.6324 9.60255 17.5858 9.50527 17.6264L8.08304 18.2208C7.61876 18.4147 7.07791 18.3401 6.69974 18.0109C6.43753 17.7838 6.19185 17.5388 5.96262 17.2761C5.63276 16.897 5.55874 16.3576 5.75286 15.8945L6.34749 14.4752C6.38831 14.3777 6.34168 14.2653 6.24384 14.2253L4.83225 13.647C4.33846 13.4445 4.0135 12.9687 4.00411 12.4373C3.99863 12.1623 3.99863 11.8377 4.00411 11.5641C4.01353 11.0313 4.33847 10.5554 4.83237 10.3529L6.24352 9.7748C6.34181 9.7344 6.38832 9.62224 6.34751 9.5248L5.75296 8.1056C5.55873 7.64232 5.63275 7.10292 5.96306 6.72346C6.19184 6.46118 6.43751 6.21609 6.69872 5.98986C7.07789 5.65995 7.61873 5.58518 8.08301 5.77915L9.50402 6.37301C9.60242 6.41386 9.71525 6.3672 9.75528 6.26977L10.344 4.83851C10.5358 4.37343 10.9715 4.04799 11.4773 4.0154C11.6516 4.00525 11.8198 4 11.9848 4ZM11.9848 5.14286C11.8429 5.14286 11.697 5.14754 11.5476 5.15624C11.4908 5.15993 11.4315 5.20423 11.403 5.2731L10.8147 6.70344C10.5341 7.3876 9.74803 7.71215 9.06302 7.42778L7.6409 6.83346C7.57012 6.80389 7.49353 6.81449 7.45026 6.85221C7.22841 7.04439 7.02054 7.25165 6.82698 7.47353C6.78986 7.51627 6.77925 7.59295 6.80933 7.6646L7.40396 9.08402C7.68976 9.76651 7.36425 10.5504 6.6787 10.8319L5.26732 11.4101C5.19666 11.4392 5.15024 11.507 5.1489 11.5856C5.14376 11.8454 5.14376 12.1548 5.1489 12.4159C5.15024 12.493 5.19666 12.561 5.26722 12.5899L6.67813 13.1679C7.36402 13.4482 7.68986 14.2333 7.40393 14.9161L6.80918 16.3358C6.77921 16.4071 6.78984 16.4839 6.82663 16.5262C7.02051 16.7484 7.22838 16.9558 7.45124 17.1487C7.49351 17.1857 7.57011 17.1962 7.64089 17.1667L9.06331 16.5723C9.74721 16.2869 10.5338 16.6121 10.8144 17.2962L11.4028 18.7265C11.4313 18.7956 11.4902 18.8396 11.547 18.843C11.6946 18.8524 11.8405 18.8572 11.9848 18.8572C12.1298 18.8572 12.2757 18.8524 12.4235 18.843C12.4798 18.8396 12.5392 18.7953 12.5673 18.7273L13.1553 17.2958C13.4371 16.6119 14.2226 16.287 14.9065 16.5723L16.3295 17.1666C16.4003 17.1962 16.4768 17.1857 16.5195 17.1485C16.7433 16.9541 16.9518 16.7463 17.1434 16.5266C17.1806 16.4839 17.1911 16.4071 17.1611 16.3355L16.5665 14.916C16.2805 14.2331 16.606 13.4478 17.2916 13.1682L18.724 12.5809C18.7934 12.5525 18.8373 12.4937 18.8409 12.437C18.8502 12.2895 18.855 12.1441 18.855 12C18.855 11.8559 18.8502 11.7104 18.8408 11.5621C18.8373 11.5062 18.7934 11.4474 18.7245 11.4192L17.2917 10.8318C16.6057 10.5507 16.2806 9.76666 16.5665 9.08395L17.1612 7.66429C17.1911 7.59286 17.1806 7.51619 17.1438 7.47389C16.9518 7.25381 16.7433 7.04588 16.5192 6.85123C16.4768 6.8144 16.4003 6.8038 16.3294 6.83338L14.9054 7.42812C14.2219 7.71195 13.437 7.38772 13.1551 6.70358L12.5676 5.27344C12.5392 5.20446 12.4792 5.15982 12.4254 5.15636C12.2723 5.14732 12.1272 5.14286 11.9848 5.14286ZM11.9848 9.30588C13.4756 9.30588 14.684 10.5124 14.684 12C14.684 13.4876 13.4756 14.694 11.9848 14.694C10.4947 14.694 9.2864 13.4875 9.2864 12C9.2864 10.5124 10.4947 9.30588 11.9848 9.30588ZM11.9848 10.4487C11.1272 10.4487 10.4314 11.1435 10.4314 12C10.4314 12.8564 11.1272 13.5512 11.9848 13.5512C12.8431 13.5512 13.539 12.8564 13.539 12C13.539 11.1435 12.8431 10.4487 11.9848 10.4487Z" fill="#000"/>
</svg>
